<?xml version="1.0" encoding="utf-8"?>
<!-- Generator: Adobe Illustrator 21.1.0, SVG Export Plug-In . SVG Version: 6.00 Build 0)  -->
<svg version="1.1" id="Layer_1" xmlns="http://www.w3.org/2000/svg" xmlns:xlink="http://www.w3.org/1999/xlink" x="0px" y="0px"
	 viewBox="0 0 100 125" style="enable-background:new 0 0 100 125;" xml:space="preserve">
<path d="M90.4,82c-0.3,1.9-0.6,2.2-0.6,2.2h0c-0.4,0-1.5-1.2-2.6-2.4c-1.5-1.6-3.5-3.7-6.1-5.8c-7.1-5.5-10.2-6.2-10.7-6.3
	c-0.6-0.2-1.7-0.7-2.3-1.4c0.6,0,1.1,0,1.7,0c7.1,0,12.9-1.3,14.5-1.7C85.4,68.4,91.1,76.6,90.4,82z"/>
<path d="M75.2,56.6l0.6,2.8c-1.7-1.6-2.8-3.1-3.4-4.2C73.4,55.7,74.3,56.2,75.2,56.6z"/>
<path d="M76.6,57.2c0.7,0.3,1.4,0.6,2,0.8l-1.5,1.7L76.6,57.2z"/>
<path d="M79.2,59.1l0.3,2.9c-0.7-0.4-1.3-0.8-1.9-1.2L79.2,59.1z"/>
<path d="M80.3,58.6c0.7,0.2,1.4,0.4,2.1,0.6l-1.8,2.4L80.3,58.6z"/>
<path d="M83.2,60.2l0.7,3.4c-1.4-0.2-2.2-0.5-2.2-0.5c-0.2-0.1-0.3-0.2-0.5-0.2L83.2,60.2z"/>
<path d="M84.2,59.5c0.9,0.2,1.7,0.2,2.5,0.3l-1.8,2.9L84.2,59.5z"/>
<path d="M87.4,60.9l0.3,2.3c-0.1,0.1-0.2,0.3-0.4,0.4c-0.6,0.1-1.2,0.1-1.7,0.1L87.4,60.9z"/>
<path d="M89.1,61.6c-0.1,0.1-0.2,0.3-0.4,0.4l-0.3-2.2c1,0,1.8-0.1,2.5-0.3c-0.2,0.2-0.4,0.4-0.5,0.6C89.9,60.7,89.5,61.2,89.1,61.6
	z"/>
<g>
	<path d="M73.5,45c0,1,0.1,2.6,1.2,3c0.2,0.1,0.5,0.1,0.7,0.1c0.7,0,1.3-0.5,1.5-0.9C76.5,46.9,75.4,45.9,73.5,45z"/>
	<path d="M96,49.1c-2.1-5.5-16.4-13.5-16.5-13.6c-5.9-2.9-10.2-2.9-12.8-2.9c-1.9,0-3.3,0-3.7-1.3c-0.2-0.7-0.4-1.8-0.6-3.3
		c-0.5-3.2-1.1-8-3.2-10.3c-1.3-1.5-1.8-1.8-2-1.8c-0.7,0-1.3,4.7-1.5,6.3c-1,7.6-5.9,13.2-6.1,13.4l-0.1,0.1l-0.2,0
		c-8.5,1.9-18.9,5.3-19,5.3l-0.3,0.1l-0.2-0.2c-1.5-1-2.8-1.6-3.5-1.6c-0.2,0-0.2,0-0.3,0.1c0,0-0.1,0.2,0,0.5
		c0.4,2.5-1.2,2.9-2.9,3.4l-0.5,0.1c-0.4,0.1-0.9,0.4-1.5,0.6c-1,0.5-2,1-3,1c-1.2,0-2.1-0.7-2.6-2.2c-1.2-3.5-4.3-7.1-7.9-11.2
		c-1.5-1.7-2-1.9-2.2-1.9c-0.3,0.1-0.4,1.4-0.5,2.2c-0.1,0.5-0.1,0.9-0.2,1.4c-0.3,1.4,0,1.5,0.6,1.9c0.5,0.3,1.1,0.6,1.5,1.5
		c1,2,2.1,7.8,1.9,11.1c-0.1,1.7-0.7,2.9-1.6,4.6c-0.9,1.8-2.1,4.3-3.4,8.6c-0.3,1.2-0.3,1.7-0.3,1.8c1.5-0.3,7.3-6.8,10.8-11.3
		c1.7-2.3,3.6-2.6,4.6-2.6c0.7,0,1.5,0.2,2,0.5c0.5,0.3,0.7,0.9,1,1.4c0.3,0.7,0.4,0.8,0.6,0.8c0.1,0,0.2,0,0.5-0.1
		c1.1-0.5,2.5-0.8,3.8-0.8c1.5,0,2.4,0.4,2.7,1.1c0.3,0.8-0.4,1.7-1.3,2.7c-0.4,0.4-1,1.2-1.1,1.5c0,0,0.1,0,0.1,0
		c0.2,0,0.4,0.1,0.7,0.1c0.7,0,1.6-0.2,2.4-0.4c1-0.2,1.9-0.5,2.9-0.5c0.6,0,1.1,0.1,1.6,0.3c0.5,0.2,1.2,0.6,2.1,1.1l0.5,0.3
		c0.9-0.2,1.8-0.4,2.8-0.5c0.8-0.1,1.7-0.2,2.5-0.3c0.8-0.1,1.7-0.1,2.5-0.1c0.2,0,0.5-0.1,0.7-0.2c0.2-0.1,0.4-0.2,0.7-0.3
		c0.2-0.1,0.4-0.3,0.6-0.4c0.2-0.1,0.4-0.3,0.6-0.5c-0.2,0.2-0.4,0.3-0.5,0.5c-0.2,0.2-0.4,0.3-0.6,0.4c-0.2,0.1-0.4,0.3-0.7,0.4
		c-0.2,0.1-0.5,0.2-0.7,0.2h0c-0.8,0.1-1.7,0.1-2.5,0.2c-0.8,0.1-1.7,0.2-2.5,0.4c-0.9,0.2-1.8,0.4-2.6,0.6l-0.8,0.3
		c-2.2,0.7-3.7,1.7-5.1,2.7c-0.2,0.1-0.4,0.3-0.6,0.4c-1.3,1-2.7,2.1-4.3,2.9c-0.1,0-0.2,0.1-0.3,0.1c-0.4,0.2-0.7,0.3-1.1,0.5
		c-1.1,0.4-2.8,1-4.7,1.6l-3.6,1.2c-1.6,0.5-3.2,1.1-4.7,1.7c-0.4,0.2-0.8,0.3-1.1,0.5c0,0-0.1,0-0.1,0c0.4,0,0.8,0,1.2,0
		c1.7,0,3.3-0.2,5-0.4l1.2-0.1l1.3-0.2c0.8-0.1,1.7-0.2,2.5-0.3c1.7-0.3,3.3-0.5,5-0.9c1.7-0.3,3.3-0.7,4.9-1.1l2.4-0.7
		c0.8-0.2,1.6-0.5,2.4-0.7c1.6-0.5,3.2-1.1,4.8-1.7c1.6-0.6,3.1-1.3,4.7-2c1.5-0.7,3-1.5,4.5-2.3l0,0c0.2-0.1,0.5-0.2,0.7-0.3
		c0.1,0,0.3-0.1,0.4-0.1c0.1,0,0.3-0.1,0.4-0.1c0.1,0,0.3,0,0.4-0.1l0.4,0c0.3,0,0.5,0,0.8,0c-0.3,0-0.5,0-0.8,0.1L53,58.6
		c-0.1,0-0.2,0.1-0.4,0.1c-0.1,0-0.2,0.1-0.4,0.1c-0.1,0-0.2,0.1-0.4,0.1c-0.2,0.1-0.5,0.2-0.7,0.3l0,0c-1.4,1-2.9,1.8-4.4,2.6
		c-0.2,0.1-0.4,0.2-0.6,0.3c0.5,0.3,1,0.5,1.6,0.8c5.8,2.7,18.9,4.2,19.4,4.3c8.8,0.4,16.5-1.5,17-1.7l0,0c0.6-0.2,1.1-0.3,1.5-0.6
		c-2.7,0-4.5-0.7-4.6-0.7c-8.7-3.7-10.5-9.9-10.6-10.2l-0.4-1.4l1.3,0.7c13.6,7.9,20.7,4.7,21.3,4.4c0,0,0,0,0,0
		C95.5,55.2,97.6,53.2,96,49.1z M78.2,47.5c0,0.1-0.9,1.8-2.8,1.8l0,0c-0.4,0-0.7-0.1-1.1-0.2c-2.5-0.9-2-4.9-1.9-5.1l0.1-0.7
		l0.7,0.3c3.5,1.3,4.9,3.2,5,3.3l0.2,0.3L78.2,47.5z"/>
</g>
</svg>
